<mxfile host="app.diagrams.net" modified="2024-04-25T15:48:47.039Z" agent="Mozilla/5.0 (Macintosh; Intel Mac OS X 10_15_7) AppleWebKit/537.36 (KHTML, like Gecko) Chrome/123.0.0.0 Safari/537.36" version="24.2.3" etag="z3A_IbBuFm7lSeOcYB9q" type="github">
  <diagram name="Page-1" id="95g9FpIZbFcb4KkHGAGg">
    <mxGraphModel>
      <root>
        <mxCell id="0" />
        <mxCell id="1" parent="0" />
      </root>
    </mxGraphModel>
  </diagram>
</mxfile>
